<?xml version="1.0" encoding="iso-8859-1"?>
<!-- Generator: Adobe Illustrator 19.0.0, SVG Export Plug-In . SVG Version: 6.00 Build 0)  -->
<svg version="1.1" id="Layer_1" xmlns="http://www.w3.org/2000/svg" xmlns:xlink="http://www.w3.org/1999/xlink" x="0px" y="0px"
	 viewBox="0 0 471.1 471.1" style="enable-background:new 0 0 471.1 471.1;" xml:space="preserve">
<g transform="translate(0 -540.36)">
	<g>
		<g>
			<path d="M204.544,877.26v-60.5c0-5.5-4.5-10-10-10s-10,4.5-10,10v60.5c-20,4.5-34.9,22.3-34.9,43.6c0,24.6,20.2,44.7,44.9,44.7
				c24.8,0,44.9-20,44.9-44.7C239.444,899.56,224.444,881.76,204.544,877.26z M194.544,945.46c-13.7,0-24.9-11.1-24.9-24.7
				c0-13.6,11.2-24.7,24.9-24.7c13.7,0,24.9,11.1,24.9,24.7C219.444,934.46,208.244,945.46,194.544,945.46z"/>
			<path d="M250.844,846.36v-250c0-30.9-25.3-56-56.3-56s-56.3,25.1-56.3,56v250c-29.9,23.6-42.3,63.4-31,100.8
				c5.8,18.7,17.2,34.7,33,46.4c15.8,11.7,34.6,17.9,54.3,17.9c19.6,0,38.4-6.2,54.3-17.9c15.8-11.7,27.2-27.7,33-46.5
				C293.144,909.76,280.644,869.96,250.844,846.36z M262.744,941.26c-9.3,30-36.7,50.2-68.2,50.2s-58.9-20.1-68.2-50.1
				c-9.3-30.8,1.8-63.6,27.6-81.7c2.7-1.9,4.3-4.9,4.3-8.2v-255c0-19.5,16.6-36,36.3-36v0c19.6,0,36.2,16.5,36.3,35.9v255
				c0,3.3,1.6,6.3,4.3,8.2C260.944,877.66,272.044,910.56,262.744,941.26z"/>
			<path d="M446.644,638.56c-2.4-2.9-6.3-4.1-10-3.2c-6.5,1.6-11.8,2.3-17.7,2.3c-34.5,0-62.5-27.1-62.5-60.3
				c0-8.1,1.4-15.5,4.5-23.1c1.4-3.6,0.7-7.7-1.9-10.5c-2.6-2.8-6.6-3.9-10.3-2.8c-17.5,5.3-32.4,15.5-43,29.3
				c-10.8,14-16.5,30.9-16.5,48.8c0,21.6,8.6,41.8,24.2,56.9c15.6,15,36.2,23.3,58.3,23.3c33.6,0,63.6-19.8,76.5-50.3
				C449.744,645.46,449.144,641.46,446.644,638.56z M371.744,679.26c-34.5,0-62.5-27.1-62.5-60.3c0-21,10.5-39.5,27.7-50.8
				c-0.3,3-0.5,6.1-0.5,9.3c0,21.6,8.6,41.8,24.2,56.9c15.6,15,36.2,23.3,58.3,23.3c0.2,0,0.4,0,0.6,0
				C407.844,671.16,390.544,679.26,371.744,679.26z"/>
			<path d="M89.644,830.16h-57.6c-5.5,0-10,4.5-10,10s4.5,10,10,10h57.6c5.6,0,10-4.5,10-10S95.144,830.16,89.644,830.16z"/>
			<path d="M89.644,691.36h-34.9c-5.5,0-10,4.5-10,10s4.5,10,10,10h34.9c5.6,0,10-4.5,10-10S95.144,691.36,89.644,691.36z"/>
			<path d="M89.644,644.56h-57.6c-5.5,0-10,4.5-10,10s4.5,10,10,10h57.6c5.6,0,10-4.5,10-10S95.144,644.56,89.644,644.56z"/>
			<path d="M89.644,598.56h-34.9c-5.5,0-10,4.5-10,10s4.5,10,10,10h34.9c5.6,0,10-4.5,10-10S95.144,598.56,89.644,598.56z"/>
			<path d="M89.644,552.56h-57.6c-5.5,0-10,4.5-10,10s4.5,10,10,10h57.6c5.6,0,10-4.4,10-10
				C99.644,557.06,95.144,552.56,89.644,552.56z"/>
			<path d="M89.644,783.26h-34.9c-5.5,0-10,4.5-10,10s4.5,10,10,10h34.9c5.6,0,10-4.5,10-10S95.144,783.26,89.644,783.26z"/>
			<path d="M89.644,737.36h-57.6c-5.5,0-10,4.5-10,10s4.5,10,10,10h57.6c5.6,0,10-4.5,10-10S95.144,737.36,89.644,737.36z"/>
		</g>
	</g>
</g>
<g>
</g>
<g>
</g>
<g>
</g>
<g>
</g>
<g>
</g>
<g>
</g>
<g>
</g>
<g>
</g>
<g>
</g>
<g>
</g>
<g>
</g>
<g>
</g>
<g>
</g>
<g>
</g>
<g>
</g>
</svg>
